<mxfile host="app.diagrams.net" modified="2020-08-12T08:58:00.086Z" agent="5.0 (Macintosh; Intel Mac OS X 10_15_6) AppleWebKit/605.1.15 (KHTML, like Gecko) Version/13.1.2 Safari/605.1.15" etag="1Kn2UEXvHdoQicp7r1-7" version="13.6.2" type="github">
  <diagram id="lBjrtFPUv-il2Id9oLwP" name="Page-1">
    <mxGraphModel dx="830" dy="702" grid="1" gridSize="10" guides="1" tooltips="1" connect="1" arrows="1" fold="1" page="1" pageScale="1" pageWidth="827" pageHeight="1169" math="0" shadow="0">
      <root>
        <mxCell id="0" />
        <mxCell id="1" parent="0" />
        <mxCell id="Y6AMalr0SGuz7igbLJHC-19" value="Oppettaja" style="swimlane;fontStyle=0;childLayout=stackLayout;horizontal=1;startSize=26;fillColor=none;horizontalStack=0;resizeParent=1;resizeParentMax=0;resizeLast=0;collapsible=1;marginBottom=0;" vertex="1" parent="1">
          <mxGeometry x="150" y="280" width="140" height="130" as="geometry" />
        </mxCell>
        <mxCell id="Y6AMalr0SGuz7igbLJHC-20" value="pk_Opeid" style="text;strokeColor=none;fillColor=none;align=left;verticalAlign=top;spacingLeft=4;spacingRight=4;overflow=hidden;rotatable=0;points=[[0,0.5],[1,0.5]];portConstraint=eastwest;" vertex="1" parent="Y6AMalr0SGuz7igbLJHC-19">
          <mxGeometry y="26" width="140" height="26" as="geometry" />
        </mxCell>
        <mxCell id="Y6AMalr0SGuz7igbLJHC-21" value="etunii" style="text;strokeColor=none;fillColor=none;align=left;verticalAlign=top;spacingLeft=4;spacingRight=4;overflow=hidden;rotatable=0;points=[[0,0.5],[1,0.5]];portConstraint=eastwest;" vertex="1" parent="Y6AMalr0SGuz7igbLJHC-19">
          <mxGeometry y="52" width="140" height="26" as="geometry" />
        </mxCell>
        <mxCell id="Y6AMalr0SGuz7igbLJHC-22" value="sukunimi" style="text;strokeColor=none;fillColor=none;align=left;verticalAlign=top;spacingLeft=4;spacingRight=4;overflow=hidden;rotatable=0;points=[[0,0.5],[1,0.5]];portConstraint=eastwest;" vertex="1" parent="Y6AMalr0SGuz7igbLJHC-19">
          <mxGeometry y="78" width="140" height="26" as="geometry" />
        </mxCell>
        <mxCell id="Y6AMalr0SGuz7igbLJHC-23" value="email" style="text;strokeColor=none;fillColor=none;align=left;verticalAlign=top;spacingLeft=4;spacingRight=4;overflow=hidden;rotatable=0;points=[[0,0.5],[1,0.5]];portConstraint=eastwest;" vertex="1" parent="Y6AMalr0SGuz7igbLJHC-19">
          <mxGeometry y="104" width="140" height="26" as="geometry" />
        </mxCell>
        <mxCell id="Y6AMalr0SGuz7igbLJHC-28" value="Kurssit" style="swimlane;fontStyle=0;childLayout=stackLayout;horizontal=1;startSize=26;fillColor=none;horizontalStack=0;resizeParent=1;resizeParentMax=0;resizeLast=0;collapsible=1;marginBottom=0;" vertex="1" parent="1">
          <mxGeometry x="490" y="320" width="160" height="162" as="geometry" />
        </mxCell>
        <mxCell id="Y6AMalr0SGuz7igbLJHC-29" value="kurssitunnus" style="text;strokeColor=none;fillColor=none;align=left;verticalAlign=top;spacingLeft=4;spacingRight=4;overflow=hidden;rotatable=0;points=[[0,0.5],[1,0.5]];portConstraint=eastwest;" vertex="1" parent="Y6AMalr0SGuz7igbLJHC-28">
          <mxGeometry y="26" width="160" height="26" as="geometry" />
        </mxCell>
        <mxCell id="Y6AMalr0SGuz7igbLJHC-30" value="fk_Opeid&#xa;o_n&#xa;kurssi" style="text;strokeColor=none;fillColor=none;align=left;verticalAlign=top;spacingLeft=4;spacingRight=4;overflow=hidden;rotatable=0;points=[[0,0.5],[1,0.5]];portConstraint=eastwest;" vertex="1" parent="Y6AMalr0SGuz7igbLJHC-28">
          <mxGeometry y="52" width="160" height="58" as="geometry" />
        </mxCell>
        <mxCell id="Y6AMalr0SGuz7igbLJHC-31" value="aika" style="text;strokeColor=none;fillColor=none;align=left;verticalAlign=top;spacingLeft=4;spacingRight=4;overflow=hidden;rotatable=0;points=[[0,0.5],[1,0.5]];portConstraint=eastwest;" vertex="1" parent="Y6AMalr0SGuz7igbLJHC-28">
          <mxGeometry y="110" width="160" height="26" as="geometry" />
        </mxCell>
        <mxCell id="Y6AMalr0SGuz7igbLJHC-32" value="paikka" style="text;strokeColor=none;fillColor=none;align=left;verticalAlign=top;spacingLeft=4;spacingRight=4;overflow=hidden;rotatable=0;points=[[0,0.5],[1,0.5]];portConstraint=eastwest;" vertex="1" parent="Y6AMalr0SGuz7igbLJHC-28">
          <mxGeometry y="136" width="160" height="26" as="geometry" />
        </mxCell>
        <mxCell id="Y6AMalr0SGuz7igbLJHC-34" value="" style="startArrow=diamondThin;startFill=0;startSize=14;endArrow=block;endFill=1;endSize=6;html=1;entryX=0.986;entryY=-0.077;entryDx=0;entryDy=0;entryPerimeter=0;" edge="1" parent="1" target="Y6AMalr0SGuz7igbLJHC-21">
          <mxGeometry width="100" relative="1" as="geometry">
            <mxPoint x="480" y="390" as="sourcePoint" />
            <mxPoint x="300" y="330" as="targetPoint" />
            <Array as="points">
              <mxPoint x="380" y="380" />
            </Array>
          </mxGeometry>
        </mxCell>
      </root>
    </mxGraphModel>
  </diagram>
</mxfile>
